<mxfile host="app.diagrams.net" modified="2023-03-29T10:13:55.814Z" agent="5.0 (Windows NT 10.0; Win64; x64) AppleWebKit/537.36 (KHTML, like Gecko) Chrome/111.0.0.0 Safari/537.36" etag="wpoiPRN99J-UNKUy_fGV" version="21.0.8" type="github">
  <diagram name="Page-1" id="N1WDbO6IyiYgTxxAgB9H">
    <mxGraphModel dx="1984" dy="660" grid="1" gridSize="10" guides="0" tooltips="1" connect="1" arrows="1" fold="1" page="1" pageScale="1" pageWidth="850" pageHeight="1100" math="0" shadow="0">
      <root>
        <mxCell id="0" />
        <mxCell id="1" parent="0" />
        <mxCell id="QO_K2qW20Og6pTeRTU9L-53" value="" style="rounded=0;whiteSpace=wrap;html=1;" vertex="1" parent="1">
          <mxGeometry x="-250" width="1100" height="500" as="geometry" />
        </mxCell>
        <mxCell id="QO_K2qW20Og6pTeRTU9L-16" style="edgeStyle=orthogonalEdgeStyle;rounded=0;orthogonalLoop=1;jettySize=auto;html=1;entryX=0.5;entryY=0;entryDx=0;entryDy=0;" edge="1" parent="1" source="QO_K2qW20Og6pTeRTU9L-13" target="QO_K2qW20Og6pTeRTU9L-14">
          <mxGeometry relative="1" as="geometry">
            <Array as="points">
              <mxPoint x="425" y="90" />
              <mxPoint x="190" y="90" />
            </Array>
          </mxGeometry>
        </mxCell>
        <mxCell id="QO_K2qW20Og6pTeRTU9L-30" style="edgeStyle=orthogonalEdgeStyle;rounded=0;orthogonalLoop=1;jettySize=auto;html=1;" edge="1" parent="1" source="QO_K2qW20Og6pTeRTU9L-13" target="QO_K2qW20Og6pTeRTU9L-17">
          <mxGeometry relative="1" as="geometry">
            <Array as="points">
              <mxPoint x="425" y="90" />
              <mxPoint x="635" y="90" />
            </Array>
          </mxGeometry>
        </mxCell>
        <mxCell id="QO_K2qW20Og6pTeRTU9L-31" style="edgeStyle=orthogonalEdgeStyle;rounded=0;orthogonalLoop=1;jettySize=auto;html=1;" edge="1" parent="1" source="QO_K2qW20Og6pTeRTU9L-13" target="QO_K2qW20Og6pTeRTU9L-18">
          <mxGeometry relative="1" as="geometry">
            <Array as="points">
              <mxPoint x="425" y="90" />
              <mxPoint x="770" y="90" />
            </Array>
          </mxGeometry>
        </mxCell>
        <mxCell id="QO_K2qW20Og6pTeRTU9L-13" value="&lt;font style=&quot;font-size: 12px;&quot;&gt;&lt;b&gt;Ram Kerur&lt;/b&gt;&lt;br&gt;Project Director&lt;br&gt;Management&lt;br&gt;&lt;/font&gt;" style="rounded=0;whiteSpace=wrap;html=1;" vertex="1" parent="1">
          <mxGeometry x="365" y="20" width="120" height="60" as="geometry" />
        </mxCell>
        <mxCell id="QO_K2qW20Og6pTeRTU9L-32" style="edgeStyle=orthogonalEdgeStyle;rounded=0;orthogonalLoop=1;jettySize=auto;html=1;" edge="1" parent="1" source="QO_K2qW20Og6pTeRTU9L-14" target="QO_K2qW20Og6pTeRTU9L-22">
          <mxGeometry relative="1" as="geometry">
            <Array as="points">
              <mxPoint x="190" y="190" />
              <mxPoint x="-85" y="190" />
            </Array>
          </mxGeometry>
        </mxCell>
        <mxCell id="QO_K2qW20Og6pTeRTU9L-33" style="edgeStyle=orthogonalEdgeStyle;rounded=0;orthogonalLoop=1;jettySize=auto;html=1;entryX=0.5;entryY=0;entryDx=0;entryDy=0;" edge="1" parent="1" source="QO_K2qW20Og6pTeRTU9L-14" target="QO_K2qW20Og6pTeRTU9L-23">
          <mxGeometry relative="1" as="geometry">
            <Array as="points">
              <mxPoint x="190" y="190" />
              <mxPoint x="45" y="190" />
            </Array>
          </mxGeometry>
        </mxCell>
        <mxCell id="QO_K2qW20Og6pTeRTU9L-35" style="edgeStyle=orthogonalEdgeStyle;rounded=0;orthogonalLoop=1;jettySize=auto;html=1;" edge="1" parent="1" source="QO_K2qW20Og6pTeRTU9L-14" target="QO_K2qW20Og6pTeRTU9L-28">
          <mxGeometry relative="1" as="geometry">
            <Array as="points">
              <mxPoint x="190" y="190" />
              <mxPoint x="305" y="190" />
            </Array>
          </mxGeometry>
        </mxCell>
        <mxCell id="QO_K2qW20Og6pTeRTU9L-36" style="edgeStyle=orthogonalEdgeStyle;rounded=0;orthogonalLoop=1;jettySize=auto;html=1;" edge="1" parent="1" source="QO_K2qW20Og6pTeRTU9L-14" target="QO_K2qW20Og6pTeRTU9L-29">
          <mxGeometry relative="1" as="geometry">
            <Array as="points">
              <mxPoint x="190" y="190" />
              <mxPoint x="445" y="190" />
            </Array>
          </mxGeometry>
        </mxCell>
        <mxCell id="QO_K2qW20Og6pTeRTU9L-37" style="edgeStyle=orthogonalEdgeStyle;rounded=0;orthogonalLoop=1;jettySize=auto;html=1;entryX=0.5;entryY=0;entryDx=0;entryDy=0;" edge="1" parent="1" source="QO_K2qW20Og6pTeRTU9L-14" target="QO_K2qW20Og6pTeRTU9L-24">
          <mxGeometry relative="1" as="geometry">
            <Array as="points">
              <mxPoint x="190" y="190" />
              <mxPoint x="170" y="190" />
            </Array>
          </mxGeometry>
        </mxCell>
        <mxCell id="QO_K2qW20Og6pTeRTU9L-14" value="&lt;font style=&quot;font-size: 12px;&quot;&gt;&lt;b&gt;Ramesh Chandra Nautiyal&lt;/b&gt;&lt;br&gt;Project Manager&lt;br&gt;System Engineer&lt;br&gt;&lt;/font&gt;" style="rounded=0;whiteSpace=wrap;html=1;" vertex="1" parent="1">
          <mxGeometry x="110" y="120" width="160" height="60" as="geometry" />
        </mxCell>
        <mxCell id="QO_K2qW20Og6pTeRTU9L-50" style="edgeStyle=orthogonalEdgeStyle;rounded=0;orthogonalLoop=1;jettySize=auto;html=1;entryX=0.5;entryY=0;entryDx=0;entryDy=0;" edge="1" parent="1" source="QO_K2qW20Og6pTeRTU9L-17" target="QO_K2qW20Og6pTeRTU9L-38">
          <mxGeometry relative="1" as="geometry" />
        </mxCell>
        <mxCell id="QO_K2qW20Og6pTeRTU9L-17" value="&lt;font style=&quot;font-size: 12px;&quot;&gt;&lt;b&gt;Kavishankar Giri&lt;/b&gt;&lt;br&gt;Validation Manager&lt;br&gt;Quality&lt;br&gt;&lt;/font&gt;" style="rounded=0;whiteSpace=wrap;html=1;" vertex="1" parent="1">
          <mxGeometry x="570" y="120" width="130" height="60" as="geometry" />
        </mxCell>
        <mxCell id="QO_K2qW20Og6pTeRTU9L-51" style="edgeStyle=orthogonalEdgeStyle;rounded=0;orthogonalLoop=1;jettySize=auto;html=1;entryX=0.5;entryY=0;entryDx=0;entryDy=0;" edge="1" parent="1" source="QO_K2qW20Og6pTeRTU9L-18" target="QO_K2qW20Og6pTeRTU9L-39">
          <mxGeometry relative="1" as="geometry" />
        </mxCell>
        <mxCell id="QO_K2qW20Og6pTeRTU9L-18" value="&lt;font style=&quot;font-size: 12px;&quot;&gt;&lt;b&gt;Karthik V&lt;/b&gt;&lt;br&gt;Saftey Manager&lt;br&gt;Quality&lt;br&gt;&lt;/font&gt;" style="rounded=0;whiteSpace=wrap;html=1;" vertex="1" parent="1">
          <mxGeometry x="710" y="120" width="120" height="60" as="geometry" />
        </mxCell>
        <mxCell id="QO_K2qW20Og6pTeRTU9L-45" style="edgeStyle=orthogonalEdgeStyle;rounded=0;orthogonalLoop=1;jettySize=auto;html=1;entryX=0.5;entryY=0;entryDx=0;entryDy=0;" edge="1" parent="1" source="QO_K2qW20Og6pTeRTU9L-22" target="QO_K2qW20Og6pTeRTU9L-42">
          <mxGeometry relative="1" as="geometry" />
        </mxCell>
        <mxCell id="QO_K2qW20Og6pTeRTU9L-22" value="&lt;font style=&quot;font-size: 12px;&quot;&gt;&lt;b&gt;Ashutosh&amp;nbsp;&lt;/b&gt;&lt;br&gt;Software Architect&lt;br&gt;Software Development&lt;br&gt;&lt;/font&gt;" style="rounded=0;whiteSpace=wrap;html=1;" vertex="1" parent="1">
          <mxGeometry x="-150" y="210" width="130" height="60" as="geometry" />
        </mxCell>
        <mxCell id="QO_K2qW20Og6pTeRTU9L-23" value="&lt;font style=&quot;font-size: 12px;&quot;&gt;&lt;b&gt;Prashanth&lt;/b&gt;&lt;br&gt;Delivery Manager&lt;br&gt;Production&lt;br&gt;&lt;/font&gt;" style="rounded=0;whiteSpace=wrap;html=1;" vertex="1" parent="1">
          <mxGeometry x="-10" y="210" width="110" height="60" as="geometry" />
        </mxCell>
        <mxCell id="QO_K2qW20Og6pTeRTU9L-48" style="edgeStyle=orthogonalEdgeStyle;rounded=0;orthogonalLoop=1;jettySize=auto;html=1;entryX=0.5;entryY=0;entryDx=0;entryDy=0;" edge="1" parent="1" source="QO_K2qW20Og6pTeRTU9L-24" target="QO_K2qW20Og6pTeRTU9L-41">
          <mxGeometry relative="1" as="geometry" />
        </mxCell>
        <mxCell id="QO_K2qW20Og6pTeRTU9L-24" value="&lt;font style=&quot;font-size: 12px;&quot;&gt;&lt;b&gt;Rupak&lt;/b&gt;&lt;br&gt;Hardware Manager&lt;br&gt;HW Development&lt;br&gt;&lt;/font&gt;" style="rounded=0;whiteSpace=wrap;html=1;" vertex="1" parent="1">
          <mxGeometry x="110" y="210" width="120" height="60" as="geometry" />
        </mxCell>
        <mxCell id="QO_K2qW20Og6pTeRTU9L-28" value="&lt;font style=&quot;font-size: 12px;&quot;&gt;&lt;b&gt;Siddesh V&lt;/b&gt;&lt;br&gt;Development Manager&lt;br&gt;Mechnical&lt;br&gt;&lt;/font&gt;" style="rounded=0;whiteSpace=wrap;html=1;" vertex="1" parent="1">
          <mxGeometry x="240" y="210" width="130" height="60" as="geometry" />
        </mxCell>
        <mxCell id="QO_K2qW20Og6pTeRTU9L-49" style="edgeStyle=orthogonalEdgeStyle;rounded=0;orthogonalLoop=1;jettySize=auto;html=1;entryX=0.5;entryY=0;entryDx=0;entryDy=0;" edge="1" parent="1" source="QO_K2qW20Og6pTeRTU9L-29" target="QO_K2qW20Og6pTeRTU9L-40">
          <mxGeometry relative="1" as="geometry" />
        </mxCell>
        <mxCell id="QO_K2qW20Og6pTeRTU9L-29" value="&lt;font style=&quot;font-size: 12px;&quot;&gt;&lt;b&gt;Sachin&lt;/b&gt;&lt;br&gt;Verification Manager&lt;br&gt;SW Development&lt;br&gt;&lt;/font&gt;" style="rounded=0;whiteSpace=wrap;html=1;" vertex="1" parent="1">
          <mxGeometry x="380" y="210" width="130" height="60" as="geometry" />
        </mxCell>
        <mxCell id="QO_K2qW20Og6pTeRTU9L-38" value="&lt;font style=&quot;font-size: 12px;&quot;&gt;&lt;b&gt;Vinay R&lt;/b&gt;&lt;br&gt;Validation Enginner&lt;br&gt;Quality&lt;br&gt;&lt;/font&gt;" style="rounded=0;whiteSpace=wrap;html=1;" vertex="1" parent="1">
          <mxGeometry x="570" y="210" width="130" height="60" as="geometry" />
        </mxCell>
        <mxCell id="QO_K2qW20Og6pTeRTU9L-39" value="&lt;font style=&quot;font-size: 12px;&quot;&gt;&lt;b&gt;Ravi S&lt;/b&gt;&lt;br&gt;Saftey Manager&lt;br&gt;Quality&lt;br&gt;&lt;/font&gt;" style="rounded=0;whiteSpace=wrap;html=1;" vertex="1" parent="1">
          <mxGeometry x="710" y="210" width="120" height="60" as="geometry" />
        </mxCell>
        <mxCell id="QO_K2qW20Og6pTeRTU9L-40" value="&lt;font style=&quot;font-size: 12px;&quot;&gt;&lt;b&gt;Sidhart&lt;/b&gt;&lt;br&gt;Verification Enginner&lt;br&gt;Mechnical&lt;br&gt;&lt;/font&gt;" style="rounded=0;whiteSpace=wrap;html=1;" vertex="1" parent="1">
          <mxGeometry x="380" y="300" width="130" height="60" as="geometry" />
        </mxCell>
        <mxCell id="QO_K2qW20Og6pTeRTU9L-41" value="&lt;font style=&quot;font-size: 12px;&quot;&gt;&lt;b&gt;Christin&lt;/b&gt;&lt;br&gt;Hardware Enginner&lt;br&gt;HW Development&lt;br&gt;&lt;/font&gt;" style="rounded=0;whiteSpace=wrap;html=1;" vertex="1" parent="1">
          <mxGeometry x="110" y="300" width="120" height="60" as="geometry" />
        </mxCell>
        <mxCell id="QO_K2qW20Og6pTeRTU9L-46" style="edgeStyle=orthogonalEdgeStyle;rounded=0;orthogonalLoop=1;jettySize=auto;html=1;" edge="1" parent="1" source="QO_K2qW20Og6pTeRTU9L-42" target="QO_K2qW20Og6pTeRTU9L-43">
          <mxGeometry relative="1" as="geometry" />
        </mxCell>
        <mxCell id="QO_K2qW20Og6pTeRTU9L-47" style="edgeStyle=orthogonalEdgeStyle;rounded=0;orthogonalLoop=1;jettySize=auto;html=1;" edge="1" parent="1" source="QO_K2qW20Og6pTeRTU9L-42" target="QO_K2qW20Og6pTeRTU9L-44">
          <mxGeometry relative="1" as="geometry" />
        </mxCell>
        <mxCell id="QO_K2qW20Og6pTeRTU9L-42" value="&lt;font style=&quot;font-size: 12px;&quot;&gt;&lt;b&gt;Rinie J&amp;nbsp;&lt;/b&gt;&lt;br&gt;System Manager&lt;br&gt;Development&lt;br&gt;&lt;/font&gt;" style="rounded=0;whiteSpace=wrap;html=1;" vertex="1" parent="1">
          <mxGeometry x="-150" y="300" width="130" height="60" as="geometry" />
        </mxCell>
        <mxCell id="QO_K2qW20Og6pTeRTU9L-43" value="&lt;font style=&quot;font-size: 12px;&quot;&gt;&lt;b&gt;Surya&amp;nbsp;&lt;/b&gt;&lt;br&gt;Software Enginner&lt;br&gt;Software Development&lt;br&gt;&lt;/font&gt;" style="rounded=0;whiteSpace=wrap;html=1;" vertex="1" parent="1">
          <mxGeometry x="-230" y="390" width="130" height="60" as="geometry" />
        </mxCell>
        <mxCell id="QO_K2qW20Og6pTeRTU9L-44" value="&lt;font style=&quot;font-size: 12px;&quot;&gt;&lt;b&gt;Tarunya&lt;br&gt;&lt;/b&gt;Software Lead&lt;br&gt;Software Development&lt;br&gt;&lt;/font&gt;" style="rounded=0;whiteSpace=wrap;html=1;" vertex="1" parent="1">
          <mxGeometry x="-70" y="390" width="130" height="60" as="geometry" />
        </mxCell>
      </root>
    </mxGraphModel>
  </diagram>
</mxfile>
